<?xml version="1.0" encoding="UTF-8"?>
<svg id="Lag_1" data-name="Lag 1" xmlns="http://www.w3.org/2000/svg" viewBox="0 0 97.43 175.64">
  <defs>
    <style>
      .cls-1 {
        fill: #9ee0e6;
      }

      .cls-2 {
        fill: #fff;
      }

      .cls-3 {
        stroke-width: .8px;
      }

      .cls-3, .cls-4 {
        fill: none;
        stroke: #000;
        stroke-miterlimit: 10;
      }
    </style>
  </defs>
  <g>
    <path class="cls-1" d="M93.9,30.66s5.19,3.07,1.99,7.76c-.24.35-.49.7-.7,1.07-2.48,4.52-19.44,35.13-26.2,39.66-.62.41-1.15.93-1.69,1.45-.02.01-.05.03-.06.06-.22.22-.45.41-.69.61l-46.92-16.77h-.08c-.86-3.93-1.41-10.04-.77-19.45.02-.31.06-.63.1-.94l4.92-32.44s-.25-3.86,6.59-3.53c0,0,32.19,2.54,63.49,22.52ZM92.99,35.55c.13-.31-.02-.66-.33-.79l-3.76-1.44c-.33-.13-.71.05-.83.38l-1.46,4.16c-.11.32.03.67.35.8l3.39,1.41c.32.13.7-.02.83-.34l1.81-4.17ZM84.71,44.74c.14-.31-.01-.66-.32-.79l-3.76-1.44c-.34-.13-.71.05-.83.38l-1.47,4.16c-.11.32.05.67.37.8l3.39,1.41c.32.13.69-.02.82-.34l1.81-4.17ZM83.52,31.73c.14-.31-.01-.66-.33-.79l-3.76-1.44c-.33-.13-.71.05-.82.39l-1.47,4.15c-.11.32.05.67.35.81l3.41,1.39c.32.14.69-.02.82-.33l1.81-4.18ZM81.47,55.32c.14-.31-.01-.66-.33-.79l-3.76-1.44c-.33-.13-.71.05-.82.39l-1.47,4.15c-.11.32.05.67.37.81l3.39,1.39c.32.14.69-.02.82-.33l1.81-4.18ZM75.27,40.77c.14-.31-.01-.66-.33-.78l-3.75-1.45c-.34-.13-.72.05-.83.39l-1.47,4.15c-.11.32.05.67.37.81l3.39,1.39c.32.14.69-.01.82-.33l1.81-4.18ZM74.04,28.72c.14-.31-.01-.66-.33-.79l-3.75-1.44c-.34-.13-.71.05-.83.39l-1.47,4.15c-.11.32.05.67.37.81l3.39,1.39c.32.13.69-.02.82-.33l1.81-4.18ZM72.56,63.76c.14-.31-.01-.66-.33-.79l-3.76-1.44c-.33-.13-.71.05-.82.39l-1.47,4.15c-.11.32.05.67.35.81l3.41,1.39c.32.14.69-.01.82-.33l1.81-4.18ZM72.03,51.9c.14-.31-.02-.66-.33-.78l-3.76-1.45c-.33-.13-.71.05-.82.39l-1.47,4.15c-.11.32.05.67.35.81l3.41,1.39c.32.14.69-.01.82-.33l1.81-4.18ZM68.8,73.26c.13-.31-.02-.66-.33-.79l-3.76-1.44c-.33-.13-.71.05-.83.38l-1.47,4.16c-.11.32.05.67.37.8l3.39,1.41c.32.13.69-.02.82-.34l1.82-4.17ZM64.1,37c.14-.3-.01-.66-.33-.78l-3.75-1.44c-.34-.14-.72.05-.83.38l-1.47,4.15c-.11.33.05.69.37.81l3.39,1.41c.32.13.69-.02.82-.34l1.81-4.18ZM63.53,24.7c.14-.31-.02-.66-.33-.79l-3.76-1.44c-.33-.13-.71.05-.82.38l-1.47,4.16c-.11.32.05.67.35.81l3.41,1.39c.32.13.69-.02.82-.34l1.81-4.17ZM61.35,59.95c.13-.31-.02-.66-.33-.79l-3.76-1.44c-.33-.13-.71.05-.82.38l-1.47,4.16c-.11.32.05.67.35.81l3.41,1.39c.32.13.69-.02.82-.34l1.81-4.17ZM61.34,47.61c.14-.31-.01-.66-.33-.79l-3.76-1.44c-.33-.13-.71.05-.82.38l-1.47,4.16c-.11.32.05.67.35.81l3.41,1.39c.32.13.69-.02.82-.34l1.81-4.17ZM58.1,69.84c.13-.31-.02-.66-.33-.79l-3.76-1.44c-.33-.13-.71.05-.83.39l-1.46,4.15c-.13.32.03.67.35.81l3.39,1.39c.32.13.69-.02.83-.33l1.81-4.18ZM53.55,33.6c.14-.31-.01-.66-.33-.79l-3.76-1.44c-.33-.13-.71.05-.82.38l-1.47,4.16c-.11.32.05.67.37.8l3.39,1.41c.32.13.69-.02.82-.34l1.81-4.17ZM53.1,20.9c.13-.31-.02-.66-.33-.78l-3.76-1.45c-.33-.13-.71.05-.83.39l-1.47,4.15c-.11.32.05.69.37.81l3.39,1.39c.32.14.69-.01.83-.33l1.81-4.18ZM51.12,56.26c.14-.31-.01-.66-.33-.78l-3.75-1.45c-.34-.13-.72.05-.83.39l-1.47,4.15c-.11.32.05.67.37.81l3.39,1.39c.32.14.69-.01.82-.33l1.81-4.18ZM50.31,44.19c.13-.31-.02-.66-.33-.79l-3.76-1.44c-.33-.13-.71.05-.83.39l-1.46,4.15c-.11.32.03.67.35.81l3.39,1.39c.32.14.7-.02.83-.33l1.81-4.18ZM47.89,65.74c.14-.31-.02-.66-.33-.79l-3.76-1.44c-.33-.13-.71.05-.82.39l-1.47,4.15c-.11.32.05.67.35.81l3.41,1.39c.32.13.69-.02.82-.33l1.81-4.18ZM43.56,30.18c.14-.31-.01-.66-.33-.79l-3.75-1.44c-.34-.13-.72.05-.83.39l-1.47,4.15c-.11.32.05.67.37.81l3.39,1.39c.32.13.69-.02.82-.34l1.81-4.17ZM42.59,17.49c.14-.31-.01-.66-.32-.78l-3.76-1.44c-.33-.14-.71.05-.83.38l-1.47,4.15c-.11.33.05.69.37.81l3.39,1.39c.32.14.69-.01.82-.33l1.81-4.18ZM40.91,41.2c.13-.31-.02-.66-.33-.79l-3.76-1.44c-.33-.13-.71.05-.83.39l-1.47,4.15c-.11.32.05.67.37.81l3.39,1.39c.32.14.69-.01.82-.33l1.82-4.18ZM40.91,52.56c.13-.31-.02-.66-.33-.79l-3.76-1.44c-.33-.13-.71.05-.83.39l-1.47,4.15c-.11.32.05.67.37.81l3.39,1.39c.32.14.69-.01.82-.33l1.82-4.18ZM38.14,62.32c.14-.31-.01-.66-.33-.79l-3.75-1.44c-.34-.13-.72.05-.83.39l-1.47,4.15c-.11.32.05.67.37.81l3.39,1.39c.32.14.69-.01.82-.33l1.81-4.18ZM34.03,26.76c.13-.31-.02-.66-.33-.79l-3.76-1.44c-.33-.13-.71.05-.83.39l-1.46,4.15c-.11.32.03.67.35.81l3.39,1.39c.32.14.7-.02.83-.33l1.81-4.18ZM32.9,13.93c.1-.32-.07-.66-.39-.77l-3.84-1.19c-.34-.11-.71.09-.8.43l-1.2,4.24c-.09.33.09.67.41.78l3.49,1.18c.32.11.69-.07.8-.39l1.53-4.29ZM31.24,49.27c.1-.31-.07-.65-.39-.75l-3.84-1.19c-.34-.11-.71.09-.8.43l-1.2,4.24c-.09.33.09.67.41.78l3.49,1.18c.32.1.69-.07.8-.39l1.53-4.3ZM30.81,37.63c.1-.31-.07-.66-.39-.75l-3.84-1.2c-.34-.1-.71.09-.8.43l-1.2,4.24c-.09.33.09.67.41.79l3.49,1.17c.33.11.69-.06.8-.39l1.53-4.29ZM28.62,59.46c.1-.32-.07-.66-.39-.77l-3.84-1.19c-.34-.1-.71.09-.8.43l-1.2,4.24c-.09.33.09.67.41.79l3.49,1.17c.32.11.69-.06.8-.39l1.53-4.29Z"/>
    <path class="cls-2" d="M92.66,34.76c.31.13.46.48.33.79l-1.81,4.17c-.14.32-.51.47-.83.34l-3.39-1.41c-.32-.13-.47-.48-.35-.8l1.46-4.16c.13-.33.5-.5.83-.38l3.76,1.44Z"/>
    <path class="cls-2" d="M84.39,43.95c.31.13.46.48.32.79l-1.81,4.17c-.14.32-.5.47-.82.34l-3.39-1.41c-.32-.13-.48-.48-.37-.8l1.47-4.16c.13-.33.49-.5.83-.38l3.76,1.44Z"/>
    <path class="cls-2" d="M83.19,30.95c.32.13.47.48.33.79l-1.81,4.18c-.14.31-.5.47-.82.33l-3.41-1.39c-.31-.14-.47-.49-.35-.81l1.47-4.15c.11-.34.49-.51.82-.39l3.76,1.44Z"/>
    <path class="cls-2" d="M81.14,54.53c.32.13.47.48.33.79l-1.81,4.18c-.14.31-.5.47-.82.33l-3.39-1.39c-.32-.14-.48-.49-.37-.81l1.47-4.15c.11-.34.49-.51.82-.39l3.76,1.44Z"/>
    <path class="cls-2" d="M74.94,40c.32.11.47.47.33.78l-1.81,4.18c-.14.32-.5.47-.82.33l-3.39-1.39c-.32-.14-.48-.49-.37-.81l1.47-4.15c.11-.34.49-.51.83-.39l3.75,1.45Z"/>
    <path class="cls-2" d="M73.71,27.93c.32.13.47.48.33.79l-1.81,4.18c-.14.31-.5.46-.82.33l-3.39-1.39c-.32-.14-.48-.49-.37-.81l1.47-4.15c.13-.34.49-.51.83-.39l3.75,1.44Z"/>
    <path class="cls-2" d="M72.23,62.97c.32.13.47.48.33.79l-1.81,4.18c-.14.32-.5.47-.82.33l-3.41-1.39c-.31-.14-.47-.49-.35-.81l1.47-4.15c.11-.34.49-.51.82-.39l3.76,1.44Z"/>
    <path class="cls-2" d="M71.7,51.13c.31.11.47.47.33.78l-1.81,4.18c-.14.32-.5.47-.82.33l-3.41-1.39c-.31-.14-.47-.49-.35-.81l1.47-4.15c.11-.34.49-.51.82-.39l3.76,1.45Z"/>
    <path class="cls-2" d="M68.47,72.47c.31.13.46.48.33.79l-1.82,4.17c-.14.32-.5.47-.82.34l-3.39-1.41c-.32-.13-.48-.48-.37-.8l1.47-4.16c.13-.33.5-.5.83-.38l3.76,1.44Z"/>
    <path class="cls-1" d="M19.64,64.49l46.92,16.77c-2.9,2.35-6.87,2.99-10.44,1.76l-8.82-3.07-13.12-4.58-7.46-2.61c-3.55-1.25-6.23-4.22-7.07-7.88-.02-.13-.06-.25-.08-.38h.08Z"/>
    <path class="cls-2" d="M63.77,36.22c.32.11.47.48.33.78l-1.81,4.18c-.14.32-.5.47-.82.34l-3.39-1.41c-.32-.13-.48-.48-.37-.81l1.47-4.15c.11-.33.49-.51.83-.38l3.75,1.44Z"/>
    <path class="cls-2" d="M63.2,23.91c.31.13.47.48.33.79l-1.81,4.17c-.14.32-.5.47-.82.34l-3.41-1.39c-.31-.14-.47-.49-.35-.81l1.47-4.16c.11-.33.49-.5.82-.38l3.76,1.44Z"/>
    <path class="cls-2" d="M61.02,59.16c.31.13.46.48.33.79l-1.81,4.17c-.14.32-.5.47-.82.34l-3.41-1.39c-.31-.14-.47-.49-.35-.81l1.47-4.16c.11-.33.49-.5.82-.38l3.76,1.44Z"/>
    <path class="cls-2" d="M61.01,46.82c.32.13.47.48.33.79l-1.81,4.17c-.14.32-.5.47-.82.34l-3.41-1.39c-.31-.14-.47-.49-.35-.81l1.47-4.16c.11-.33.49-.5.82-.38l3.76,1.44Z"/>
    <path class="cls-2" d="M57.77,69.05c.31.13.46.48.33.79l-1.81,4.18c-.15.31-.51.46-.83.33l-3.39-1.39c-.32-.14-.48-.49-.35-.81l1.46-4.15c.13-.34.5-.51.83-.39l3.76,1.44Z"/>
    <path class="cls-2" d="M53.21,32.81c.32.13.47.48.33.79l-1.81,4.17c-.14.32-.5.47-.82.34l-3.39-1.41c-.32-.13-.48-.48-.37-.8l1.47-4.16c.11-.33.49-.5.82-.38l3.76,1.44Z"/>
    <path class="cls-2" d="M52.77,20.12c.31.11.46.47.33.78l-1.81,4.18c-.15.32-.51.47-.83.33l-3.39-1.39c-.32-.13-.48-.49-.37-.81l1.47-4.15c.13-.34.5-.51.83-.39l3.76,1.45Z"/>
    <path class="cls-2" d="M50.79,55.48c.32.11.47.47.33.78l-1.81,4.18c-.14.32-.5.47-.82.33l-3.39-1.39c-.32-.14-.48-.49-.37-.81l1.47-4.15c.11-.34.49-.51.83-.39l3.75,1.45Z"/>
    <path class="cls-2" d="M49.98,43.4c.31.13.46.48.33.79l-1.81,4.18c-.14.31-.51.47-.83.33l-3.39-1.39c-.32-.14-.47-.49-.35-.81l1.46-4.15c.13-.34.5-.51.83-.39l3.76,1.44Z"/>
    <path class="cls-2" d="M47.56,64.95c.31.13.47.48.33.79l-1.81,4.18c-.14.31-.5.46-.82.33l-3.41-1.39c-.31-.14-.47-.49-.35-.81l1.47-4.15c.11-.34.49-.51.82-.39l3.76,1.44Z"/>
    <path class="cls-1" d="M34.18,75.37l13.12,4.58-.17.48L13.65,173.48s-8.55,5.96-13.12-4.75l33.48-92.89.16-.47ZM11.62,169.31c0-2.02-1.63-3.67-3.66-3.67s-3.66,1.65-3.66,3.67,1.65,3.66,3.66,3.66,3.66-1.65,3.66-3.66Z"/>
    <path class="cls-2" d="M43.23,29.39c.32.13.47.48.33.79l-1.81,4.17c-.14.32-.5.47-.82.34l-3.39-1.39c-.32-.14-.48-.49-.37-.81l1.47-4.15c.11-.34.49-.51.83-.39l3.75,1.44Z"/>
    <path class="cls-2" d="M42.27,16.71c.31.11.46.47.32.78l-1.81,4.18c-.14.32-.5.47-.82.33l-3.39-1.39c-.32-.13-.48-.48-.37-.81l1.47-4.15c.13-.33.5-.51.83-.38l3.76,1.44Z"/>
    <path class="cls-2" d="M40.58,40.41c.31.13.46.48.33.79l-1.82,4.18c-.14.32-.5.47-.82.33l-3.39-1.39c-.32-.14-.48-.49-.37-.81l1.47-4.15c.13-.34.5-.51.83-.39l3.76,1.44Z"/>
    <path class="cls-2" d="M40.58,51.78c.31.13.46.48.33.79l-1.82,4.18c-.14.32-.5.47-.82.33l-3.39-1.39c-.32-.14-.48-.49-.37-.81l1.47-4.15c.13-.34.5-.51.83-.39l3.76,1.44Z"/>
    <path class="cls-2" d="M37.81,61.53c.32.13.47.48.33.79l-1.81,4.18c-.14.32-.5.47-.82.33l-3.39-1.39c-.32-.14-.48-.49-.37-.81l1.47-4.15c.11-.34.49-.51.83-.39l3.75,1.44Z"/>
    <path class="cls-2" d="M33.7,25.98c.31.13.46.48.33.79l-1.81,4.18c-.14.31-.51.47-.83.33l-3.39-1.39c-.32-.14-.47-.49-.35-.81l1.46-4.15c.13-.34.5-.51.83-.39l3.76,1.44Z"/>
    <path class="cls-2" d="M32.51,13.17c.32.1.49.45.39.77l-1.53,4.29c-.11.32-.48.5-.8.39l-3.49-1.18c-.32-.1-.5-.45-.41-.78l1.2-4.24c.09-.34.46-.55.8-.43l3.84,1.19Z"/>
    <path class="cls-2" d="M30.85,48.52c.32.1.49.45.39.75l-1.53,4.3c-.11.32-.48.49-.8.39l-3.49-1.18c-.32-.1-.5-.45-.41-.78l1.2-4.24c.09-.34.46-.55.8-.43l3.84,1.19Z"/>
    <path class="cls-2" d="M30.42,36.88c.32.09.49.45.39.75l-1.53,4.29c-.11.33-.47.5-.8.39l-3.49-1.17c-.32-.11-.5-.46-.41-.79l1.2-4.24c.09-.34.46-.54.8-.43l3.84,1.2Z"/>
    <path class="cls-2" d="M28.24,58.69c.32.1.49.45.39.77l-1.53,4.29c-.11.33-.48.5-.8.39l-3.49-1.17c-.32-.11-.5-.46-.41-.79l1.2-4.24c.09-.34.46-.54.8-.43l3.84,1.19Z"/>
    <path class="cls-2" d="M7.96,165.64c2.02,0,3.66,1.65,3.66,3.67s-1.63,3.66-3.66,3.66-3.66-1.65-3.66-3.66,1.65-3.67,3.66-3.67Z"/>
  </g>
  <g>
    <path class="cls-4" d="M47.12,80.43L13.65,173.48s-8.55,5.96-13.12-4.75l33.48-92.89"/>
    <path class="cls-4" d="M66.56,81.27c-2.9,2.35-6.87,2.99-10.44,1.76l-8.82-3.07-13.12-4.58-7.46-2.61c-3.55-1.25-6.23-4.22-7.07-7.88-.02-.13-.06-.25-.08-.38-.86-3.94-1.41-10.06-.77-19.46.02-.31.06-.63.1-.94l4.92-32.44s-.25-3.86,6.59-3.53c0,0,32.19,2.54,63.49,22.52,0,0,5.19,3.07,1.99,7.76-.24.35-.49.7-.7,1.07-2.48,4.52-19.44,35.13-26.2,39.66-.62.41-1.15.93-1.69,1.45-.02.01-.05.03-.06.06-.22.22-.45.41-.69.61Z"/>
    <line class="cls-4" x1="19.64" y1="64.49" x2="66.56" y2="81.27"/>
    <path class="cls-3" d="M66.98,77.43l1.82-4.17c.13-.31-.02-.66-.33-.79l-3.76-1.44c-.33-.13-.71.05-.83.38l-1.47,4.16c-.11.32.05.67.37.8l3.39,1.41c.32.13.69-.02.82-.34Z"/>
    <path class="cls-3" d="M70.75,67.95l1.81-4.18c.14-.31-.01-.66-.33-.79l-3.76-1.44c-.33-.13-.71.05-.82.39l-1.47,4.15c-.11.32.05.67.35.81l3.41,1.39c.32.14.69-.01.82-.33Z"/>
    <path class="cls-3" d="M79.67,59.5l1.81-4.18c.14-.31-.01-.66-.33-.79l-3.76-1.44c-.33-.13-.71.05-.82.39l-1.47,4.15c-.11.32.05.67.37.81l3.39,1.39c.32.14.69-.02.82-.33Z"/>
    <path class="cls-3" d="M82.9,48.91l1.81-4.17c.14-.31-.01-.66-.32-.79l-3.76-1.44c-.34-.13-.71.05-.83.38l-1.47,4.16c-.11.32.05.67.37.8l3.39,1.41c.32.13.69-.02.82-.34Z"/>
    <path class="cls-3" d="M73.46,44.95l1.81-4.18c.14-.31-.01-.66-.33-.78l-3.75-1.45c-.34-.13-.72.05-.83.39l-1.47,4.15c-.11.32.05.67.37.81l3.39,1.39c.32.14.69-.01.82-.33Z"/>
    <path class="cls-3" d="M81.71,35.92l1.81-4.18c.14-.31-.01-.66-.33-.79l-3.76-1.44c-.33-.13-.71.05-.82.39l-1.47,4.15c-.11.32.05.67.35.81l3.41,1.39c.32.14.69-.02.82-.33Z"/>
    <path class="cls-3" d="M72.24,32.9l1.81-4.18c.14-.31-.01-.66-.33-.79l-3.75-1.44c-.34-.13-.71.05-.83.39l-1.47,4.15c-.11.32.05.67.37.81l3.39,1.39c.32.13.69-.02.82-.33Z"/>
    <path class="cls-3" d="M62.3,41.18l1.81-4.18c.14-.3-.01-.66-.33-.78l-3.75-1.44c-.34-.14-.72.05-.83.38l-1.47,4.15c-.11.33.05.69.37.81l3.39,1.41c.32.13.69-.02.82-.34Z"/>
    <path class="cls-3" d="M61.73,28.87l1.81-4.17c.14-.31-.02-.66-.33-.79l-3.76-1.44c-.33-.13-.71.05-.82.38l-1.47,4.16c-.11.32.05.67.35.81l3.41,1.39c.32.13.69-.02.82-.34Z"/>
    <path class="cls-3" d="M51.74,37.77l1.81-4.17c.14-.31-.01-.66-.33-.79l-3.76-1.44c-.33-.13-.71.05-.82.38l-1.47,4.16c-.11.32.05.67.37.8l3.39,1.41c.32.13.69-.02.82-.34Z"/>
    <path class="cls-3" d="M51.29,25.08l1.81-4.18c.13-.31-.02-.66-.33-.78l-3.76-1.45c-.33-.13-.71.05-.83.39l-1.47,4.15c-.11.32.05.69.37.81l3.39,1.39c.32.14.69-.01.83-.33Z"/>
    <path class="cls-3" d="M41.75,34.35l1.81-4.17c.14-.31-.01-.66-.33-.79l-3.75-1.44c-.34-.13-.72.05-.83.39l-1.47,4.15c-.11.32.05.67.37.81l3.39,1.39c.32.13.69-.02.82-.34Z"/>
    <path class="cls-3" d="M32.22,30.95l1.81-4.18c.13-.31-.02-.66-.33-.79l-3.76-1.44c-.33-.13-.71.05-.83.39l-1.46,4.15c-.11.32.03.67.35.81l3.39,1.39c.32.14.7-.02.83-.33Z"/>
    <path class="cls-3" d="M91.18,39.72l1.81-4.17c.13-.31-.02-.66-.33-.79l-3.76-1.44c-.33-.13-.71.05-.83.38l-1.46,4.16c-.11.32.03.67.35.8l3.39,1.41c.32.13.7-.02.83-.34Z"/>
    <path class="cls-3" d="M56.3,74.02l1.81-4.18c.13-.31-.02-.66-.33-.79l-3.76-1.44c-.33-.13-.71.05-.83.39l-1.46,4.15c-.13.32.03.67.35.81l3.39,1.39c.32.13.69-.02.83-.33Z"/>
    <path class="cls-3" d="M59.54,64.12l1.81-4.17c.13-.31-.02-.66-.33-.79l-3.76-1.44c-.33-.13-.71.05-.82.38l-1.47,4.16c-.11.32.05.67.35.81l3.41,1.39c.32.13.69-.02.82-.34Z"/>
    <path class="cls-3" d="M70.23,56.08l1.81-4.18c.14-.31-.02-.66-.33-.78l-3.76-1.45c-.33-.13-.71.05-.82.39l-1.47,4.15c-.11.32.05.67.35.81l3.41,1.39c.32.14.69-.01.82-.33Z"/>
    <path class="cls-3" d="M46.08,69.92l1.81-4.18c.14-.31-.02-.66-.33-.79l-3.76-1.44c-.33-.13-.71.05-.82.39l-1.47,4.15c-.11.32.05.67.35.81l3.41,1.39c.32.13.69-.02.82-.33Z"/>
    <path class="cls-3" d="M49.32,60.44l1.81-4.18c.14-.31-.01-.66-.33-.78l-3.75-1.45c-.34-.13-.72.05-.83.39l-1.47,4.15c-.11.32.05.67.37.81l3.39,1.39c.32.14.69-.01.82-.33Z"/>
    <path class="cls-3" d="M59.53,51.78l1.81-4.17c.14-.31-.01-.66-.33-.79l-3.76-1.44c-.33-.13-.71.05-.82.38l-1.47,4.16c-.11.32.05.67.35.81l3.41,1.39c.32.13.69-.02.82-.34Z"/>
    <path class="cls-3" d="M36.34,66.51l1.81-4.18c.14-.31-.01-.66-.33-.79l-3.75-1.44c-.34-.13-.72.05-.83.39l-1.47,4.15c-.11.32.05.67.37.81l3.39,1.39c.32.14.69-.01.82-.33Z"/>
    <path class="cls-3" d="M39.09,56.75l1.82-4.18c.13-.31-.02-.66-.33-.79l-3.76-1.44c-.33-.13-.71.05-.83.39l-1.47,4.15c-.11.32.05.67.37.81l3.39,1.39c.32.14.69-.01.82-.33Z"/>
    <path class="cls-3" d="M48.51,48.37l1.81-4.18c.13-.31-.02-.66-.33-.79l-3.76-1.44c-.33-.13-.71.05-.83.39l-1.46,4.15c-.11.32.03.67.35.81l3.39,1.39c.32.14.7-.02.83-.33Z"/>
    <path class="cls-3" d="M39.09,45.38l1.82-4.18c.13-.31-.02-.66-.33-.79l-3.76-1.44c-.33-.13-.71.05-.83.39l-1.47,4.15c-.11.32.05.67.37.81l3.39,1.39c.32.14.69-.01.82-.33Z"/>
    <path class="cls-3" d="M40.78,21.67l1.81-4.18c.14-.31-.01-.66-.32-.78l-3.76-1.44c-.33-.14-.71.05-.83.38l-1.47,4.15c-.11.33.05.69.37.81l3.39,1.39c.32.14.69-.01.82-.33Z"/>
    <path class="cls-3" d="M29.28,41.92l1.53-4.29c.1-.31-.07-.66-.39-.75l-3.84-1.2c-.34-.1-.71.09-.8.43l-1.2,4.24c-.09.33.09.67.41.79l3.49,1.17c.33.11.69-.06.8-.39Z"/>
    <path class="cls-3" d="M31.37,18.22l1.53-4.29c.1-.32-.07-.66-.39-.77l-3.84-1.19c-.34-.11-.71.09-.8.43l-1.2,4.24c-.09.33.09.67.41.78l3.49,1.18c.32.11.69-.07.8-.39Z"/>
    <path class="cls-3" d="M27.09,63.74l1.53-4.29c.1-.32-.07-.66-.39-.77l-3.84-1.19c-.34-.1-.71.09-.8.43l-1.2,4.24c-.09.33.09.67.41.79l3.49,1.17c.32.11.69-.06.8-.39Z"/>
    <path class="cls-3" d="M29.71,53.57l1.53-4.3c.1-.31-.07-.65-.39-.75l-3.84-1.19c-.34-.11-.71.09-.8.43l-1.2,4.24c-.09.33.09.67.41.78l3.49,1.18c.32.1.69-.07.8-.39Z"/>
    <path class="cls-4" d="M4.31,169.31c0,2.01,1.65,3.66,3.66,3.66s3.66-1.65,3.66-3.66-1.63-3.67-3.66-3.67-3.66,1.65-3.66,3.67Z"/>
  </g>
</svg>