
<svg id="Lag_1" data-name="Lag 1" xmlns="http://www.w3.org/2000/svg" viewBox="0 0 587.72 359.58">
  <defs>
    <style>
      .cls-1 {
        fill: #ff0;
      }

      .cls-1, .cls-2, .cls-3, .cls-4 {
        stroke: #000;
        stroke-miterlimit: 10;
        stroke-width: 3px;
      }

      .cls-2 {
        fill: #fdeb00;
      }

      .cls-3 {
        fill: #fff800;
      }
    </style>
  </defs>
  <path class="cls-1" d="M54.66,158.65s76.09-20.84,78.4-48.63-13.23-58.22-13.23-58.22c0,0,56.57,50.28,76.09,38.04s25.14-52.6,25.14-52.6c0,0,8.93,43.67,37.71,49.29,0,0,17.53,7.61,26.13-43.34,0,0,17.73-42.35,23.92-41.68,0,0-4.4,76.42,16.77,83.37s26.47-8.6,26.47-8.6c0,0,13.56-35.4,19.85-36.39l23.16,27.79s11.91,32.42,23.82,20.18,44.66-46.65,54.25-44c0,0-23.49,55.25-15.22,65.83s10.92,16.87,15.22,18.86,56.57,24.48,62.53,20.84c0,0-43.01,39.37-41.02,43.34,0,0-10.98,26.53,10.85,82.11,0,0-62.25-40.61-68.71-37.94s-26.07,39.27-27.54,66.75c0,0-27.89-52.76-52.48-50.94s-35.27,69.84-35.27,69.84l-10.82,33.3-35.05-63.08s-4.2-44.87-33.57-37.45-37.45,29.38-37.45,29.38l-17.75,30.02-30.67-40.35s-19.37-20.66-33.9-11.62-56.49,23.24-56.49,23.24l27.12-45.19s26.15-39.49-5.49-62.12c-31.64-22.62-32.77-20.02-32.77-20.02Z"/>
  <path class="cls-4" d="M172.5,159.32s-9.78-42.07-54.3-17.12c0,0-17.86,21.44,9.32,45.17,0,0,38.01,13.48.45,15.12,0,0-16.08-3.61-15.53,11.83s19.02,14.08,19.02,14.08c0,0,31.94-3.94,33.76-27.7,0,0-1.06-18.32-21.8-22.71,0,0-7.72-7.11-6.81-12.87s11.18-3.18,11.18-3.18c0,0,18.35,13.92,24.72-2.62Z"/>
  <path class="cls-4" d="M173.04,152.68s3.97-14.17,11.99-13.65,9.33,10.91,9.33,10.91c0,0-3.68,31.95-2.5,33s.39,8.28,5.26,9.47,8.68-11.05,8.68-11.05c0,0,1.45-23.39-2.1-34.04,0,0,.13-9.86,11.83-9.6s11.83,9.07,11.83,9.07v24.32s-1.18,8.79-.92,10.24,1.58,6.58,5.65,6.85,6.44-6.05,6.44-6.05v-34.71s.26-10.13,8.41-9.73,9.47,5,9.47,5c0,0,4.34,15.78,3.68,18.27l.07,46.67s-.86,11.96-18.34,12.1c0,0-16.51.98-20.38-6.7-3.56-7.07-10.88-.84-11.31.13-.29.67-10.14,9.07-14.99,9.47s-24.64-.74-26.61-10.6c0,0-3.26-11.5,1.72-21.69l.12-25.66,2.66-12.01Z"/>
  <path class="cls-4" d="M262.01,162.37s6.76-33.32,30.79-34.82c24.21-1.51,34.42,33.08,34.42,33.08l-1.62,42.18s-5.1,13.19-15.68,12.94c0,0-8.21-.37-7.59-14.06,0,0,.75-10.58-8.06-10.49-8.67.08-9.73,9.37-9.73,9.37,0,0-1.24,11.7-10.45,12.32s-12.82-5.48-12.82-5.48l.75-45.04Z"/>
  <path class="cls-4" d="M327.61,156.7c.02-.49.09-.97.2-1.44,1.06-4.58,7.26-28.88,18.74-27.75,12.68,1.25,18.71,4.15,18.71,4.15,0,0,15.33,7.73,16.54,18.95s2.29,13.68-1.81,21.02l-4.38,8.8c-.72,1.45-.57,3.17.38,4.47,3.38,4.6,11.06,15.21,11.06,16.56,0,1.74,3.65,7.38-1.33,12.82s-12.34-.43-12.34-.43c0,0-14.02-19.93-17.26-22.82l-2.83-2.44c-1.1-.95-2.81-.2-2.86,1.25l-.45,12.32s.58,10.43-6.14,12.97c-4.11,1.56-7.27,1.08-9.1.47-.99-.33-1.88-.91-2.6-1.67l-5.25-5.49c-1.01-1.06-1.54-2.48-1.48-3.94l2.2-47.82Z"/>
  <path class="cls-4" d="M379.41,142.01c.06-.72.21-1.43.47-2.11,1.11-2.92,4.59-10.61,10.11-9.4,4.68,1.02,9.65,3.09,12.29,4.29,1.21.55,2.25,1.39,3.04,2.46,2.98,4.04,11.11,14.44,14.81,13.14,4.27-1.5,6.06-1.6,11.02-14.33.76-1.95,2.27-3.51,4.19-4.32,4.23-1.77,12.05-4.16,18.75-1.36,9.63,4.03,10,3.24,14.63,14.96.12.32.23.64.31.97.66,2.62,3.71,14.9,3.71,16.55,0,1.85,5.11,34.84,5.11,37.19s2.36,16.17-6.79,16.34-9.34,1.45-15.41-8.62c-.17-.28-.33-.59-.46-.89l-8.52-19.39c-.15-.34-.27-.69-.39-1.04-.36-1.12-1.51-3.92-3.82-3.8-2.89.15-6.38,5.02-6.38,5.02,0,0-3.76,5.17-7.27,4.71s-10.66-3.04-11.73-4.86-4.26-4.41-6.23-3.19-4.15,3.53-2.84,13.55c.06.49.09.99.06,1.49-.2,3.43-1.17,17.43-3.3,18.1,0,0-2.74,4.56-8.97,3.8,0,0-5.1.73-6.95-3.55-.37-.87-.51-1.82-.51-2.76v-7.62c0-1.18-.27-2.34-.78-3.4l-3.71-7.6c-.42-.85-.67-1.78-.75-2.72l-1.85-21.26c-.06-.68-.03-1.36.09-2.03l1.42-7.95c.09-.53.13-1.07.12-1.62l-.17-5.12c-.03-.88-.21-1.74-.52-2.55l-2.38-6.13c-.42-1.09-.59-2.25-.5-3.41l.12-1.51Z"/>
  <path class="cls-3" d="M286.75,171.63h14.91s.37-17.6-6.8-17.48-8.11,17.48-8.11,17.48Z"/>
  <path class="cls-3" d="M349.32,159.14c0-4.97,3.85-8.3,8.61-8.3s7.56,3.52,7.56,8.49-2.88,8.38-7.64,8.38-8.53-3.61-8.53-8.58Z"/>
  <polygon class="cls-2" points="513.77 91.12 504.64 76.55 554.36 67.92 524.75 83.76 533.1 98.36 483.82 104.41 513.77 91.12"/>
  <polygon class="cls-2" points="39.12 233.58 29.45 219.36 78.81 208.84 49.82 225.8 58.72 240.07 9.71 248 39.12 233.58"/>
  <polygon class="cls-2" points="549.33 239.11 544.5 255.61 505 224.21 536.52 235.79 541.88 219.85 579.16 252.64 549.33 239.11"/>
  <polygon class="cls-2" points="79.13 93.32 84.88 77.12 122.54 110.7 91.73 97.36 85.48 112.97 50.11 78.13 79.13 93.32"/>
</svg>